REM DIRINDEX 1\2\5,1\2\6,1\2\7,1\2\8,1\3\9,1\3\10,1\3\11,1\4\12,1\4\13,1\4\14,1\4\15,1\4\16
REM DIRNAME cjc034,folder01,folder02,folder03,folder04,folder05,folder06,folder07,folder08,folder09,folder10,folder11,folder12,folder13,folder14,folder15
TITLE ""
FILE "1200_sec05_1505_1513.mp3" MP3
  TRACK 01 AUDIO
    TITLE "0:"
    INDEX 01 00:00:00
  TRACK 02 AUDIO
    TITLE "12:cjc034_09764"
    INDEX 01 00:00:17
  TRACK 03 AUDIO
    TITLE "0:"
    INDEX 01 00:01:36
  TRACK 04 AUDIO
    TITLE "13:cjc034_09765"
    INDEX 01 00:01:69
  TRACK 05 AUDIO
    TITLE "0:"
    INDEX 01 00:04:11
  TRACK 06 AUDIO
    TITLE "14:cjc034_09766"
    INDEX 01 00:04:46
  TRACK 07 AUDIO
    TITLE "0:"
    INDEX 01 00:05:65
  TRACK 08 AUDIO
    TITLE "15:cjc034_09767"
    INDEX 01 00:06:22
  TRACK 09 AUDIO
    TITLE "0:"
    INDEX 01 00:10:49
  TRACK 10 AUDIO
    TITLE "12:cjc034_09768"
    INDEX 01 00:12:11
  TRACK 11 AUDIO
    TITLE "0:"
    INDEX 01 00:13:45
  TRACK 12 AUDIO
    TITLE "13:cjc034_09769"
    INDEX 01 00:14:04
  TRACK 13 AUDIO
    TITLE "0:"
    INDEX 01 00:18:42
  TRACK 14 AUDIO
    TITLE "14:cjc034_09770"
    INDEX 01 00:19:03
  TRACK 15 AUDIO
    TITLE "0:"
    INDEX 01 00:20:37
  TRACK 16 AUDIO
    TITLE "15:cjc034_09771"
    INDEX 01 00:20:71
  TRACK 17 AUDIO
    TITLE "0:"
    INDEX 01 00:25:70
  TRACK 18 AUDIO
    TITLE "12:cjc034_09772"
    INDEX 01 00:27:32
  TRACK 19 AUDIO
    TITLE "0:"
    INDEX 01 00:28:53
  TRACK 20 AUDIO
    TITLE "13:cjc034_09773"
    INDEX 01 00:29:13
  TRACK 21 AUDIO
    TITLE "0:"
    INDEX 01 00:31:45
  TRACK 22 AUDIO
    TITLE "14:cjc034_09774"
    INDEX 01 00:32:01
  TRACK 23 AUDIO
    TITLE "0:"
    INDEX 01 00:33:26
  TRACK 24 AUDIO
    TITLE "15:cjc034_09775"
    INDEX 01 00:33:58
  TRACK 25 AUDIO
    TITLE "0:"
    INDEX 01 00:39:62
  TRACK 26 AUDIO
    TITLE "12:cjc034_09776"
    INDEX 01 00:41:20
  TRACK 27 AUDIO
    TITLE "0:"
    INDEX 01 00:42:41
  TRACK 28 AUDIO
    TITLE "13:cjc034_09777"
    INDEX 01 00:43:01
  TRACK 29 AUDIO
    TITLE "0:"
    INDEX 01 00:46:51
  TRACK 30 AUDIO
    TITLE "14:cjc034_09778"
    INDEX 01 00:47:09
  TRACK 31 AUDIO
    TITLE "0:"
    INDEX 01 00:48:28
  TRACK 32 AUDIO
    TITLE "15:cjc034_09779"
    INDEX 01 00:48:65
  TRACK 33 AUDIO
    TITLE "0:"
    INDEX 01 00:53:60
  TRACK 34 AUDIO
    TITLE "12:cjc034_09780"
    INDEX 01 00:55:18
  TRACK 35 AUDIO
    TITLE "0:"
    INDEX 01 00:56:33
  TRACK 36 AUDIO
    TITLE "13:cjc034_09781"
    INDEX 01 00:56:67
  TRACK 37 AUDIO
    TITLE "0:"
    INDEX 01 01:00:17
  TRACK 38 AUDIO
    TITLE "14:cjc034_09782"
    INDEX 01 01:00:53
  TRACK 39 AUDIO
    TITLE "0:"
    INDEX 01 01:01:64
  TRACK 40 AUDIO
    TITLE "15:cjc034_09783"
    INDEX 01 01:02:24
  TRACK 41 AUDIO
    TITLE "0:"
    INDEX 01 01:06:47
  TRACK 42 AUDIO
    TITLE "12:cjc034_09784"
    INDEX 01 01:08:05
  TRACK 43 AUDIO
    TITLE "0:"
    INDEX 01 01:09:16
  TRACK 44 AUDIO
    TITLE "13:cjc034_09785"
    INDEX 01 01:09:46
  TRACK 45 AUDIO
    TITLE "0:"
    INDEX 01 01:13:26
  TRACK 46 AUDIO
    TITLE "14:cjc034_09786"
    INDEX 01 01:13:59
  TRACK 47 AUDIO
    TITLE "0:"
    INDEX 01 01:14:68
  TRACK 48 AUDIO
    TITLE "15:cjc034_09787"
    INDEX 01 01:15:27
  TRACK 49 AUDIO
    TITLE "0:"
    INDEX 01 01:19:19
  TRACK 50 AUDIO
    TITLE "12:cjc034_09788"
    INDEX 01 01:20:51
  TRACK 51 AUDIO
    TITLE "0:"
    INDEX 01 01:21:57
  TRACK 52 AUDIO
    TITLE "13:cjc034_09789"
    INDEX 01 01:22:13
  TRACK 53 AUDIO
    TITLE "0:"
    INDEX 01 01:25:57
  TRACK 54 AUDIO
    TITLE "14:cjc034_09790"
    INDEX 01 01:26:13
  TRACK 55 AUDIO
    TITLE "0:"
    INDEX 01 01:27:20
  TRACK 56 AUDIO
    TITLE "15:cjc034_09791"
    INDEX 01 01:27:51
  TRACK 57 AUDIO
    TITLE "0:"
    INDEX 01 01:30:46
  TRACK 58 AUDIO
    TITLE "12:cjc034_09792"
    INDEX 01 01:32:10
  TRACK 59 AUDIO
    TITLE "0:"
    INDEX 01 01:33:25
  TRACK 60 AUDIO
    TITLE "13:cjc034_09793"
    INDEX 01 01:33:60
  TRACK 61 AUDIO
    TITLE "0:"
    INDEX 01 01:36:68
  TRACK 62 AUDIO
    TITLE "14:cjc034_09794"
    INDEX 01 01:37:26
  TRACK 63 AUDIO
    TITLE "0:"
    INDEX 01 01:38:45
  TRACK 64 AUDIO
    TITLE "15:cjc034_09795"
    INDEX 01 01:39:04
  TRACK 65 AUDIO
    TITLE "0:"
    INDEX 01 01:42:61
  TRACK 66 AUDIO
    TITLE "12:cjc034_09796"
    INDEX 01 01:44:23
  TRACK 67 AUDIO
    TITLE "0:"
    INDEX 01 01:45:47
  TRACK 68 AUDIO
    TITLE "13:cjc034_09797"
    INDEX 01 01:46:04
  TRACK 69 AUDIO
    TITLE "0:"
    INDEX 01 01:47:15
  TRACK 70 AUDIO
    TITLE "14:cjc034_09798"
    INDEX 01 01:47:50
  TRACK 71 AUDIO
    TITLE "0:"
    INDEX 01 01:49:00
  TRACK 72 AUDIO
    TITLE "15:cjc034_09799"
    INDEX 01 01:49:32
  TRACK 73 AUDIO
    TITLE "0:"
    INDEX 01 01:56:59
